<svg xmlns:xlink="http://www.w3.org/1999/xlink" xmlns="http://www.w3.org/2000/svg" width="512px" height="512px" viewBox="0 0 512 512" version="1.1">
  <defs>
    <path d="M260.37 4.39146L260.413 4.39221Q266.589 4.50001 272.753 4.91074Q278.916 5.32146 285.052 6.03411Q291.188 6.74676 297.281 7.75962Q303.375 8.77248 309.411 10.0831Q315.447 11.3937 321.412 12.999Q327.377 14.6042 333.256 16.5002Q339.135 18.3962 344.914 20.5784Q350.692 22.7605 356.357 25.2236Q362.022 27.6867 367.559 30.4248Q373.096 33.1629 378.492 36.1694Q383.888 39.1758 389.13 42.4435Q394.372 45.7111 399.447 49.232Q404.523 52.7529 409.419 56.5186Q414.316 60.2842 419.021 64.2857Q423.727 68.2871 428.231 72.5146Q432.735 76.7421 437.026 81.1855Q441.317 85.6289 445.384 90.2775Q449.452 94.926 453.287 99.7686Q457.122 104.611 460.714 109.636Q464.307 114.661 467.648 119.856Q470.99 125.051 474.073 130.404Q477.155 135.757 479.972 141.255Q482.788 146.752 485.331 152.382Q487.874 158.011 490.138 163.758Q492.402 169.505 494.381 175.357Q496.36 181.208 498.05 187.149Q499.74 193.091 501.136 199.108Q502.532 205.125 503.631 211.204Q504.73 217.282 505.53 223.407Q506.329 229.532 506.828 235.689Q507.326 241.846 507.521 248.02Q507.716 254.194 507.609 260.37L507.608 260.413Q507.5 266.589 507.089 272.753Q506.679 278.916 505.966 285.052Q505.253 291.188 504.24 297.281Q503.227 303.375 501.917 309.411Q500.606 315.447 499.001 321.412Q497.396 327.377 495.5 333.256Q493.604 339.135 491.422 344.914Q489.239 350.692 486.776 356.357Q484.313 362.022 481.575 367.559Q478.837 373.096 475.831 378.492Q472.824 383.888 469.557 389.13Q466.289 394.372 462.768 399.447Q459.247 404.523 455.481 409.419Q451.716 414.316 447.714 419.021Q443.713 423.727 439.485 428.231Q435.258 432.735 430.815 437.026Q426.371 441.317 421.723 445.384Q417.074 449.452 412.231 453.287Q407.389 457.122 402.364 460.714Q397.339 464.307 392.144 467.648Q386.949 470.99 381.596 474.073Q376.243 477.155 370.745 479.972Q365.248 482.788 359.618 485.331Q353.989 487.874 348.242 490.138Q342.495 492.402 336.643 494.381Q330.792 496.36 324.85 498.05Q318.909 499.74 312.892 501.136Q306.875 502.532 300.796 503.631Q294.718 504.73 288.593 505.53Q282.467 506.329 276.311 506.828Q270.154 507.326 263.98 507.521Q257.806 507.716 251.63 507.609L251.587 507.608Q245.411 507.5 239.247 507.089Q233.084 506.679 226.948 505.966Q220.812 505.253 214.719 504.24Q208.625 503.227 202.589 501.917Q196.553 500.606 190.588 499.001Q184.623 497.396 178.744 495.5Q172.865 493.604 167.086 491.422Q161.308 489.239 155.643 486.776Q149.978 484.313 144.441 481.575Q138.904 478.837 133.508 475.831Q128.112 472.824 122.87 469.556Q117.628 466.289 112.553 462.768Q107.477 459.247 102.581 455.481Q97.6844 451.716 92.9786 447.714Q88.2728 443.713 83.769 439.485Q79.2652 435.258 74.9743 430.814Q70.6833 426.371 66.6156 421.722Q62.5478 417.074 58.7131 412.231Q54.8783 407.389 51.2858 402.364Q47.6933 397.339 44.3517 392.144Q41.0101 386.949 37.9274 381.596Q34.8447 376.243 32.0284 370.745Q29.2121 365.248 26.6689 359.618Q24.1257 353.989 21.8618 348.242Q19.5979 342.495 17.6188 336.643Q15.6396 330.792 13.9499 324.85Q12.2603 318.909 10.8642 312.892Q9.46806 306.875 8.3689 300.796Q7.26973 294.718 6.47015 288.593Q5.67056 282.467 5.17248 276.311Q4.6744 270.154 4.47903 263.98Q4.28366 257.806 4.39146 251.63L4.39221 251.587Q4.50002 245.411 4.91074 239.247Q5.32146 233.084 6.03411 226.948Q6.74676 220.812 7.75962 214.719Q8.77248 208.625 10.0831 202.589Q11.3937 196.553 12.999 190.588Q14.6042 184.623 16.5002 178.744Q18.3962 172.865 20.5784 167.086Q22.7606 161.308 25.2236 155.643Q27.6867 149.978 30.4248 144.441Q33.1629 138.904 36.1694 133.508Q39.1758 128.112 42.4435 122.87Q45.7111 117.628 49.232 112.553Q52.7529 107.477 56.5186 102.581Q60.2843 97.6844 64.2857 92.9786Q68.2871 88.2728 72.5146 83.769Q76.7421 79.2652 81.1855 74.9743Q85.6289 70.6833 90.2775 66.6156Q94.926 62.5478 99.7686 58.7131Q104.611 54.8783 109.636 51.2858Q114.661 47.6933 119.856 44.3517Q125.051 41.0101 130.404 37.9274Q135.757 34.8447 141.255 32.0284Q146.752 29.2121 152.382 26.6689Q158.011 24.1257 163.758 21.8618Q169.505 19.5979 175.357 17.6188Q181.208 15.6396 187.149 13.9499Q193.091 12.2603 199.108 10.8642Q205.125 9.46806 211.204 8.36889Q217.282 7.26973 223.407 6.47014Q229.532 5.67056 235.689 5.17248Q241.846 4.6744 248.02 4.47903Q254.194 4.28366 260.37 4.39146L260.37 4.39146Z" id="path_1"/>
    <clipPath id="clip_1">
      <use xlink:href="#path_1" clip-rule="evenodd" fill-rule="evenodd"/>
    </clipPath>
  </defs>
  <g id="logo">
    <path d="M260.37 4.39146L260.413 4.39221Q266.589 4.50001 272.753 4.91074Q278.916 5.32146 285.052 6.03411Q291.188 6.74676 297.281 7.75962Q303.375 8.77248 309.411 10.0831Q315.447 11.3937 321.412 12.999Q327.377 14.6042 333.256 16.5002Q339.135 18.3962 344.914 20.5784Q350.692 22.7605 356.357 25.2236Q362.022 27.6867 367.559 30.4248Q373.096 33.1629 378.492 36.1694Q383.888 39.1758 389.13 42.4435Q394.372 45.7111 399.447 49.232Q404.523 52.7529 409.419 56.5186Q414.316 60.2842 419.021 64.2857Q423.727 68.2871 428.231 72.5146Q432.735 76.7421 437.026 81.1855Q441.317 85.6289 445.384 90.2775Q449.452 94.926 453.287 99.7686Q457.122 104.611 460.714 109.636Q464.307 114.661 467.648 119.856Q470.99 125.051 474.073 130.404Q477.155 135.757 479.972 141.255Q482.788 146.752 485.331 152.382Q487.874 158.011 490.138 163.758Q492.402 169.505 494.381 175.357Q496.36 181.208 498.05 187.149Q499.74 193.091 501.136 199.108Q502.532 205.125 503.631 211.204Q504.73 217.282 505.53 223.407Q506.329 229.532 506.828 235.689Q507.326 241.846 507.521 248.02Q507.716 254.194 507.609 260.37L507.608 260.413Q507.5 266.589 507.089 272.753Q506.679 278.916 505.966 285.052Q505.253 291.188 504.24 297.281Q503.227 303.375 501.917 309.411Q500.606 315.447 499.001 321.412Q497.396 327.377 495.5 333.256Q493.604 339.135 491.422 344.914Q489.239 350.692 486.776 356.357Q484.313 362.022 481.575 367.559Q478.837 373.096 475.831 378.492Q472.824 383.888 469.557 389.13Q466.289 394.372 462.768 399.447Q459.247 404.523 455.481 409.419Q451.716 414.316 447.714 419.021Q443.713 423.727 439.485 428.231Q435.258 432.735 430.815 437.026Q426.371 441.317 421.723 445.384Q417.074 449.452 412.231 453.287Q407.389 457.122 402.364 460.714Q397.339 464.307 392.144 467.648Q386.949 470.99 381.596 474.073Q376.243 477.155 370.745 479.972Q365.248 482.788 359.618 485.331Q353.989 487.874 348.242 490.138Q342.495 492.402 336.643 494.381Q330.792 496.36 324.85 498.05Q318.909 499.74 312.892 501.136Q306.875 502.532 300.796 503.631Q294.718 504.73 288.593 505.53Q282.467 506.329 276.311 506.828Q270.154 507.326 263.98 507.521Q257.806 507.716 251.63 507.609L251.587 507.608Q245.411 507.5 239.247 507.089Q233.084 506.679 226.948 505.966Q220.812 505.253 214.719 504.24Q208.625 503.227 202.589 501.917Q196.553 500.606 190.588 499.001Q184.623 497.396 178.744 495.5Q172.865 493.604 167.086 491.422Q161.308 489.239 155.643 486.776Q149.978 484.313 144.441 481.575Q138.904 478.837 133.508 475.831Q128.112 472.824 122.87 469.556Q117.628 466.289 112.553 462.768Q107.477 459.247 102.581 455.481Q97.6844 451.716 92.9786 447.714Q88.2728 443.713 83.769 439.485Q79.2652 435.258 74.9743 430.814Q70.6833 426.371 66.6156 421.722Q62.5478 417.074 58.7131 412.231Q54.8783 407.389 51.2858 402.364Q47.6933 397.339 44.3517 392.144Q41.0101 386.949 37.9274 381.596Q34.8447 376.243 32.0284 370.745Q29.2121 365.248 26.6689 359.618Q24.1257 353.989 21.8618 348.242Q19.5979 342.495 17.6188 336.643Q15.6396 330.792 13.9499 324.85Q12.2603 318.909 10.8642 312.892Q9.46806 306.875 8.3689 300.796Q7.26973 294.718 6.47015 288.593Q5.67056 282.467 5.17248 276.311Q4.6744 270.154 4.47903 263.98Q4.28366 257.806 4.39146 251.63L4.39221 251.587Q4.50002 245.411 4.91074 239.247Q5.32146 233.084 6.03411 226.948Q6.74676 220.812 7.75962 214.719Q8.77248 208.625 10.0831 202.589Q11.3937 196.553 12.999 190.588Q14.6042 184.623 16.5002 178.744Q18.3962 172.865 20.5784 167.086Q22.7606 161.308 25.2236 155.643Q27.6867 149.978 30.4248 144.441Q33.1629 138.904 36.1694 133.508Q39.1758 128.112 42.4435 122.87Q45.7111 117.628 49.232 112.553Q52.7529 107.477 56.5186 102.581Q60.2843 97.6844 64.2857 92.9786Q68.2871 88.2728 72.5146 83.769Q76.7421 79.2652 81.1855 74.9743Q85.6289 70.6833 90.2775 66.6156Q94.926 62.5478 99.7686 58.7131Q104.611 54.8783 109.636 51.2858Q114.661 47.6933 119.856 44.3517Q125.051 41.0101 130.404 37.9274Q135.757 34.8447 141.255 32.0284Q146.752 29.2121 152.382 26.6689Q158.011 24.1257 163.758 21.8618Q169.505 19.5979 175.357 17.6188Q181.208 15.6396 187.149 13.9499Q193.091 12.2603 199.108 10.8642Q205.125 9.46806 211.204 8.36889Q217.282 7.26973 223.407 6.47014Q229.532 5.67056 235.689 5.17248Q241.846 4.6744 248.02 4.47903Q254.194 4.28366 260.37 4.39146L260.37 4.39146Z" id="Rectangle" fill="#7B6178" fill-rule="evenodd" stroke="none"/>
    <g clip-path="url(#clip_1)">
      <g id="ふ" transform="translate(38 -255)">
        <g transform="translate(0, 132.48)" id="ふ" fill="#EDDCEC">
          <path d="M280.14 385.02Q310.5 385.02 341.32 396.75Q372.14 408.48 392.38 430.1Q412.62 451.72 412.62 479.78Q412.62 510.14 390.08 510.14Q379.96 510.14 370.53 503.01Q361.1 495.88 357.88 487.14Q341.78 446.2 314.18 422.97Q286.58 399.74 257.6 399.74Q250.7 399.74 242.88 401.12L245.18 402.96Q269.56 424.58 278.07 439.99Q286.58 455.4 286.58 474.72Q286.58 499.1 272.32 515.2Q258.06 531.3 231.38 531.3Q218.96 531.3 210.68 528.77Q202.4 526.24 188.14 519.8Q157.32 506 126.04 497.72Q109.02 517.04 95.68 527.16Q82.34 537.28 69 537.28Q52.44 537.28 41.63 525.09Q30.82 512.9 30.82 495.88Q30.82 488.06 34.04 478.63Q37.26 469.2 39.56 464.6Q49.68 468.28 57.5 470.58Q65.32 472.42 75.44 472.42Q98.44 472.42 119.14 462.3Q139.84 452.18 170.2 431.02Q191.82 415.84 205.16 408.02L199.18 399.28Q184 377.66 175.72 362.48Q167.44 347.3 167.44 334.88Q167.44 304.52 194.12 284.74Q206.54 275.08 212.06 269.1Q217.58 263.12 217.58 255.3Q217.58 244.26 206.77 232.3Q195.96 220.34 172.5 205.16Q161.92 198.26 161.92 195.96Q161.92 193.66 166.98 193.66Q170.2 193.66 179.4 195.5Q203.78 201.02 228.62 213.21Q253.46 225.4 269.56 240.81Q285.66 256.22 285.66 270.48Q285.66 285.66 270.48 290.72Q255.3 295.78 234.14 296.7Q212.06 298.08 196.19 304.29Q180.32 310.5 180.32 330.74Q180.32 344.54 189.29 354.89Q198.26 365.24 218.96 381.34L234.6 393.76Q257.14 385.02 280.14 385.02ZM209.3 414.46Q193.2 424.58 178.02 439.76Q162.84 454.94 143.06 477.94L133.4 488.98Q155.02 493.12 172.5 493.12Q184.46 493.12 189.98 492.2Q206.54 490.36 218.04 483.69Q229.54 477.02 229.54 464.14Q229.54 453.1 226.55 445.28Q223.56 437.46 218.96 430.1Q214.36 422.74 212.98 420.44L209.3 414.46Z"/>
        </g>
      </g>
    </g>
  </g>
</svg>